<svg width="55" height="55" viewBox="0 0 55 55" fill="none" xmlns="http://www.w3.org/2000/svg">
<circle cx="27.5" cy="27.5" r="26.5" stroke="white" stroke-width="2"/>
<path d="M20.5 53.5C21.0813 52.9615 21.0264 53.1552 21.1029 52.5V47.5622H15.8088C14.2724 46.9724 13.4679 46.4931 12.3676 44.7631C11.9228 42.7518 11.5112 41.7632 10.1176 40.5645C9.26575 39.8251 8.80458 39.4657 8 38.8851C8.90549 38.0815 9.64986 38.1228 11.3088 38.8851C12.2625 39.4255 13.0053 40.4788 14.3529 42.8038C15.228 43.4879 15.7608 43.8204 17 44.0634H19.6471C20.5237 43.777 20.8672 43.5964 21.1029 43.2236C21.471 41.8393 21.7315 41.0895 22.4265 39.8648C22.7566 39.5851 22.6999 39.4619 22.1618 39.305C20.0842 39.1762 18.9655 38.833 17 38.0454C14.6854 36.8319 13.6571 35.8954 12.3676 33.7069C12.1525 33.5927 10.8933 29.0887 10.9118 27.2691C10.9302 25.4495 10.8349 24.5746 11.3088 22.3707C11.7216 20.6149 12.2316 19.8556 13.4265 18.7319C12.954 16.3539 12.9801 15.0706 13.0294 13.9736C13.5369 10.712 13.4417 10.9641 13.6912 11.0346C14.8336 11.0068 15.61 11.1059 17.5294 11.7343L20.5735 13.6937C23.0907 13.1523 24.5553 12.969 27.3235 12.9939C30.4045 12.8669 31.8711 13.143 34.3382 13.8336C36.0452 12.696 36.677 11.9976 38.4412 11.4544C39.6074 11.0887 40.2428 10.9551 41.3529 11.0346C41.7115 11.8807 41.8398 12.4154 42.0147 13.4137C42.1157 15.1597 42.0046 16.4101 41.75 18.7319C43.1869 20.1064 43.7711 21.0906 44 23.6303C44.2473 25.5418 44.2469 26.8285 44 29.5083C43.5261 31.8076 43.1062 32.955 42.0147 34.6865C41.0801 35.7897 40.3999 36.4311 38.8382 37.6255C37.7229 38.2602 37.2638 38.5135 35.7941 38.8851C34.4828 39.2661 33.6755 39.3875 32.2206 39.5849C33.0037 40.2788 33.4039 40.8263 33.9412 42.5239C33.9168 46.7588 33.9842 48.3988 34 52.5C34.0096 53.0796 33.9936 53.3973 35 53.5" stroke="white" stroke-width="2"/>
</svg>
