<svg width="61" height="57" viewBox="0 0 61 57" fill="none" xmlns="http://www.w3.org/2000/svg">
<path d="M13.1259 57H0.965938V17.88H13.1259V57ZM7.04594 0.839998C10.9659 0.839998 13.4459 3.48 13.5259 7C13.5259 10.36 10.9659 13.08 6.96594 13.08C3.12594 13.08 0.565938 10.36 0.645938 7C0.565938 3.48 3.12594 0.839998 7.04594 0.839998ZM22.9191 57V30.36C22.9191 25.48 22.7591 21.32 22.5991 17.88H33.1591L33.7191 23.24H33.9591C35.5591 20.76 39.5591 17 46.0391 17C54.0391 17 60.0391 22.28 60.0391 33.8V57H47.8791V35.32C47.8791 30.28 46.1191 26.84 41.7191 26.84C38.3591 26.84 36.3591 29.16 35.5591 31.4C35.2391 32.2 35.0791 33.32 35.0791 34.44V57H22.9191Z" fill="white"/>
</svg>
