<svg width="108" height="108" viewBox="0 0 108 108" fill="none" xmlns="http://www.w3.org/2000/svg">
<circle cx="54" cy="54" r="52" stroke="white" stroke-width="4"/>
<path d="M39.1259 76H26.9659V36.88H39.1259V76ZM33.0459 19.84C36.9659 19.84 39.4459 22.48 39.5259 26C39.5259 29.36 36.9659 32.08 32.9659 32.08C29.1259 32.08 26.5659 29.36 26.6459 26C26.5659 22.48 29.1259 19.84 33.0459 19.84ZM48.9191 76V49.36C48.9191 44.48 48.7591 40.32 48.5991 36.88H59.1591L59.7191 42.24H59.9591C61.5591 39.76 65.5591 36 72.0391 36C80.0391 36 86.0391 41.28 86.0391 52.8V76H73.8791V54.32C73.8791 49.28 72.1191 45.84 67.7191 45.84C64.3591 45.84 62.3591 48.16 61.5591 50.4C61.2391 51.2 61.0791 52.32 61.0791 53.44V76H48.9191Z" fill="white"/>
</svg>
