<svg width="60" height="60" viewBox="0 0 60 60" fill="none" xmlns="http://www.w3.org/2000/svg">
<path d="M2.42856 57.2462L6.16609 43.7308C1.8212 35.8328 1.26558 27.4392 4.85795 19.129C7.46288 12.0181 15.6889 4.42797 25.9127 2.74853C30.1692 2.31605 32.5006 2.43566 35.8172 3.12223C40.4214 4.07533 44.23 6.35697 46.656 8.16715C50.8296 11.2813 54.5394 15.9888 56.5605 22.9282C57.9143 28.2238 58.118 36.911 53.9442 43.7308C49.5125 50.972 44.5853 54.3502 37.3122 56.4988C31.3117 58.1635 23.085 57.6849 16.6935 54.0075C16.6935 54.0075 2.9269 57.4953 2.67773 57.4953C2.42856 57.4953 2.42856 57.2462 2.42856 57.2462Z" stroke="white" stroke-width="4"/>
<path d="M20.8671 16.2639C20.1458 16.2213 19.4966 16.2639 18.4999 16.4508C17.5033 16.6376 14.9493 20.0009 14.9493 23.3019C14.9493 26.1795 17.3659 30.1752 18.9983 32.1461C20.6306 34.1171 22.6638 36.8779 25.7881 38.9966C28.9124 41.1152 33.2987 43.9839 38.3089 43.6062C43.319 43.2285 44.2266 40.3675 44.2266 40.3675C44.2872 40.2487 45.0157 38.0437 44.9741 37.6893C44.9325 37.3349 44.7751 36.6641 44.4135 36.4436L38.3089 33.3918C37.7691 33.1375 36.976 33.2537 36.627 33.7032L34.6959 36.4436C34.2331 37.1539 33.6188 37.4352 32.5157 37.0042C31.4126 36.5731 29.0896 35.3855 27.2209 33.7032C25.3521 32.0209 22.6735 28.3468 22.6735 28.3468C22.3348 27.7144 22.3142 27.3599 22.6735 26.7275L24.916 24.4853C25.1379 23.9007 25.0943 23.5367 24.916 22.8659L22.6735 17.1359C22.2119 16.561 21.8213 16.3655 20.8671 16.2639Z" stroke="white" stroke-width="4"/>
</svg>
