<svg width="100" height="100" viewBox="0 0 100 100" fill="none" xmlns="http://www.w3.org/2000/svg">
<path d="M22.4286 76.2462L26.1661 62.7308C21.8212 54.8328 21.2656 46.4392 24.858 38.129C27.4629 31.0181 35.6889 23.428 45.9127 21.7485C50.1692 21.3161 52.5006 21.4357 55.8172 22.1222C60.4214 23.0753 64.23 25.357 66.656 27.1672C70.8296 30.2813 74.5394 34.9888 76.5605 41.9282C77.9143 47.2238 78.118 55.911 73.9442 62.7308C69.5125 69.972 64.5853 73.3502 57.3122 75.4988C51.3117 77.1635 43.085 76.6849 36.6935 73.0075C36.6935 73.0075 22.9269 76.4953 22.6777 76.4953C22.4286 76.4953 22.4286 76.2462 22.4286 76.2462Z" stroke="white" stroke-width="4"/>
<path d="M40.8671 35.2639C40.1458 35.2213 39.4966 35.2639 38.4999 35.4508C37.5033 35.6376 34.9493 39.0009 34.9493 42.3019C34.9493 45.1795 37.3659 49.1752 38.9983 51.1461C40.6306 53.1171 42.6638 55.8779 45.7881 57.9966C48.9124 60.1152 53.2987 62.9839 58.3089 62.6062C63.319 62.2285 64.2266 59.3675 64.2266 59.3675C64.2872 59.2487 65.0157 57.0437 64.9741 56.6893C64.9325 56.3349 64.7751 55.6641 64.4135 55.4436L58.3089 52.3918C57.7691 52.1375 56.976 52.2537 56.627 52.7032L54.6959 55.4436C54.2331 56.1539 53.6188 56.4352 52.5157 56.0042C51.4126 55.5731 49.0896 54.3855 47.2209 52.7032C45.3521 51.0209 42.6735 47.3468 42.6735 47.3468C42.3348 46.7144 42.3142 46.3599 42.6735 45.7275L44.916 43.4853C45.1379 42.9007 45.0943 42.5367 44.916 41.8659L42.6735 36.1359C42.2119 35.561 41.8213 35.3655 40.8671 35.2639Z" stroke="white" stroke-width="4"/>
<circle cx="50" cy="50" r="48" stroke="white" stroke-width="4"/>
</svg>
